<svg width="42" height="42" viewBox="0 0 42 42" fill="none" xmlns="http://www.w3.org/2000/svg">
<circle cx="21" cy="21" r="21" fill="#ECF2E7"/>
<path fill-rule="evenodd" clip-rule="evenodd" d="M28.5668 24.6103L23.0617 30.142C22.8555 30.3486 22.5841 30.452 22.3125 30.452L22.3125 10.5002C22.8971 10.5002 23.625 10.72 23.625 11.3046L23.625 26.5762L27.0663 23.1169C27.4787 22.7026 28.1488 22.701 28.5632 23.1134C28.9776 23.5258 28.9791 24.196 28.5668 24.6103Z" fill="#63AF23"/>
<path d="M23.0617 30.142L23.2387 30.3186L23.2389 30.3183L23.0617 30.142ZM28.5668 24.6103L28.744 24.7867L28.744 24.7867L28.5668 24.6103ZM22.3125 30.452L22.0625 30.452L22.0625 30.7019L22.3124 30.702L22.3125 30.452ZM22.3125 10.5002L22.3125 10.2502L22.0625 10.2502L22.0625 10.5002L22.3125 10.5002ZM23.625 26.5762L23.375 26.5762L23.375 27.182L23.8022 26.7525L23.625 26.5762ZM27.0663 23.1169L26.8891 22.9406L26.8891 22.9406L27.0663 23.1169ZM28.5632 23.1134L28.3868 23.2906L28.3868 23.2906L28.5632 23.1134ZM23.2389 30.3183L28.744 24.7867L28.3896 24.434L22.8845 29.9656L23.2389 30.3183ZM22.3124 30.702C22.6474 30.702 22.9835 30.5743 23.2387 30.3186L22.8848 29.9654C22.7276 30.1229 22.5208 30.202 22.3126 30.202L22.3124 30.702ZM22.0625 10.5002L22.0625 30.452L22.5625 30.452L22.5625 10.5002L22.0625 10.5002ZM23.875 11.3046C23.875 10.8844 23.605 10.6128 23.3001 10.4598C22.9997 10.3089 22.6299 10.2502 22.3125 10.2502L22.3125 10.7502C22.5797 10.7502 22.8661 10.8013 23.0758 10.9066C23.2811 11.0096 23.375 11.1403 23.375 11.3046L23.875 11.3046ZM23.875 26.5762L23.875 11.3046L23.375 11.3046L23.375 26.5762L23.875 26.5762ZM26.8891 22.9406L23.4478 26.3999L23.8022 26.7525L27.2435 23.2932L26.8891 22.9406ZM28.7395 22.9362C28.2273 22.4264 27.3989 22.4284 26.8891 22.9406L27.2435 23.2933C27.5585 22.9768 28.0703 22.9756 28.3868 23.2906L28.7395 22.9362ZM28.744 24.7867C29.2537 24.2745 29.2518 23.446 28.7395 22.9362L28.3868 23.2906C28.7033 23.6056 28.7045 24.1175 28.3896 24.434L28.744 24.7867Z" fill="#63AF23"/>
<path fill-rule="evenodd" clip-rule="evenodd" d="M13.4332 16.3417L18.9383 10.81C19.1445 10.6033 19.4159 10.4999 19.6875 10.5L19.6875 30.4518C19.1029 30.4518 18.375 30.2319 18.375 29.6473L18.375 14.3758L14.9337 17.835C14.5213 18.2494 13.8512 18.251 13.4368 17.8386C13.0224 17.4262 13.0209 16.756 13.4332 16.3417Z" fill="#63AF23"/>
<path d="M18.9383 10.81L18.7613 10.6334L18.7611 10.6336L18.9383 10.81ZM13.4332 16.3417L13.256 16.1653L13.256 16.1653L13.4332 16.3417ZM19.6875 10.5L19.9375 10.5L19.9375 10.2501L19.6876 10.25L19.6875 10.5ZM19.6875 30.4518L19.6875 30.7018L19.9375 30.7018L19.9375 30.4518L19.6875 30.4518ZM18.375 29.6473L18.625 29.6473L18.375 29.6473ZM18.375 14.3758L18.625 14.3758L18.625 13.77L18.1978 14.1994L18.375 14.3758ZM14.9337 17.835L15.1109 18.0114L15.1109 18.0114L14.9337 17.835ZM13.4368 17.8386L13.6132 17.6614L13.6132 17.6614L13.4368 17.8386ZM18.7611 10.6336L13.256 16.1653L13.6104 16.518L19.1155 10.9863L18.7611 10.6336ZM19.6876 10.25C19.3526 10.2499 19.0165 10.3777 18.7613 10.6334L19.1152 10.9866C19.2724 10.829 19.4792 10.75 19.6874 10.75L19.6876 10.25ZM19.9375 30.4518L19.9375 10.5L19.4375 10.5L19.4375 30.4518L19.9375 30.4518ZM18.125 29.6473C18.125 30.0676 18.395 30.3392 18.6999 30.4922C19.0003 30.643 19.3701 30.7018 19.6875 30.7018L19.6875 30.2018C19.4203 30.2018 19.1339 30.1506 18.9242 30.0454C18.7189 29.9423 18.625 29.8117 18.625 29.6473L18.125 29.6473ZM18.125 14.3758L18.125 29.6473L18.625 29.6473L18.625 14.3758L18.125 14.3758ZM15.1109 18.0114L18.5522 14.5521L18.1978 14.1994L14.7565 17.6587L15.1109 18.0114ZM13.2605 18.0158C13.7727 18.5256 14.6011 18.5236 15.1109 18.0114L14.7565 17.6587C14.4415 17.9752 13.9297 17.9764 13.6132 17.6614L13.2605 18.0158ZM13.256 16.1653C12.7463 16.6775 12.7482 17.5059 13.2605 18.0158L13.6132 17.6614C13.2967 17.3464 13.2955 16.8345 13.6104 16.518L13.256 16.1653Z" fill="#63AF23"/>
</svg>
